<svg version="1.1" viewBox="0.0 0.0 960.0 540.0" fill="none" stroke="none" stroke-linecap="square" stroke-miterlimit="10" xmlns:xlink="http://www.w3.org/1999/xlink" xmlns="http://www.w3.org/2000/svg"><clipPath id="g1599b6cdca7_0_0.0"><path d="m0 0l960.0 0l0 540.0l-960.0 0l0 -540.0z" clip-rule="nonzero"/></clipPath><g clip-path="url(#g1599b6cdca7_0_0.0)"><defs><linearGradient id="g1599b6cdca7_0_0.1" gradientUnits="userSpaceOnUse" gradientTransform="matrix(23.238126853633812 0.0 0.0 23.238126853633812 0.0 0.0)" spreadMethod="pad" x1="41.31141920545468" y1="23.23812685503607" x2="41.311673335740146" y2="2.7918307161143867E-9"><stop offset="0.0" stop-color="#4e29aa"/><stop offset="1.0" stop-color="#674ea7"/></linearGradient></defs><path fill="url(#g1599b6cdca7_0_0.1)" d="m0 0l960.0 0l0 540.0l-960.0 0z" fill-rule="evenodd"/><defs><linearGradient id="g1599b6cdca7_0_0.2" gradientUnits="userSpaceOnUse" gradientTransform="matrix(10.858087808204141 0.0 0.0 10.858087808204141 0.0 0.0)" spreadMethod="pad" x1="-2.963679764252335" y1="25.82526133235553" x2="-2.9658911708467346" y2="36.683348915367205"><stop offset="0.0" stop-color="#674ea7"/><stop offset="1.0" stop-color="#351c75"/></linearGradient></defs><path fill="url(#g1599b6cdca7_0_0.2)" d="m26.671425 280.43695l-58.851326 59.022766l58.851326 58.85132l59.022766 -58.85132l-59.022766 -59.022766z" fill-rule="evenodd"/><defs><linearGradient id="g1599b6cdca7_0_0.3" gradientUnits="userSpaceOnUse" gradientTransform="matrix(17.50308214198619 0.0 0.0 17.50308214198619 0.0 0.0)" spreadMethod="pad" x1="-9.302172726078226" y1="18.80357217489168" x2="-9.305737082379736" y2="36.30665395395219"><stop offset="0.0" stop-color="#674ea7"/><stop offset="1.0" stop-color="#351c75"/></linearGradient></defs><path fill="url(#g1599b6cdca7_0_0.3)" d="m-158.5593 482.3354l149.06654 148.89508l148.89508 -148.89508l-148.89508 -149.07605zm149.06654 153.143l-153.32394 -153.143l153.32394 -153.1525l153.1525 153.1525z" fill-rule="evenodd"/><defs><linearGradient id="g1599b6cdca7_0_0.4" gradientUnits="userSpaceOnUse" gradientTransform="matrix(17.50308155622509 0.0 0.0 17.50308155622509 0.0 0.0)" spreadMethod="pad" x1="-9.808237843237807" y1="18.80357397569746" x2="-9.811802199658601" y2="36.30665516899683"><stop offset="0.0" stop-color="#674ea7"/><stop offset="1.0" stop-color="#351c75"/></linearGradient></defs><path fill="url(#g1599b6cdca7_0_0.4)" d="m-167.42651 482.3354l148.8951 148.89508l149.07605 -148.89508l-149.07605 -149.07605zm148.8951 153.143l-153.14299 -153.143l153.14299 -153.1525l153.1525 153.1525z" fill-rule="evenodd"/><defs><linearGradient id="g1599b6cdca7_0_0.5" gradientUnits="userSpaceOnUse" gradientTransform="matrix(17.503081556284737 0.0 0.0 17.503081556284737 0.0 0.0)" spreadMethod="pad" x1="-10.31484799265772" y1="18.803573975633384" x2="-10.318412934839621" y2="36.306655168873114"><stop offset="0.0" stop-color="#674ea7"/><stop offset="1.0" stop-color="#351c75"/></linearGradient></defs><path fill="url(#g1599b6cdca7_0_0.5)" d="m-176.46518 482.3354l149.07605 148.89508l148.8951 -148.89508l-148.8951 -149.07605zm149.07605 153.143l-153.1525 -153.143l153.1525 -153.1525l153.14297 153.1525z" fill-rule="evenodd"/><defs><linearGradient id="g1599b6cdca7_0_0.6" gradientUnits="userSpaceOnUse" gradientTransform="matrix(17.50308389932902 0.0 0.0 17.50308389932902 0.0 0.0)" spreadMethod="pad" x1="-10.831250032369935" y1="18.80356911545528" x2="-10.834814974074618" y2="36.30665265173943"><stop offset="0.0" stop-color="#674ea7"/><stop offset="1.0" stop-color="#351c75"/></linearGradient></defs><path fill="url(#g1599b6cdca7_0_0.6)" d="m-185.33241 482.3354l148.90463 148.89508l149.06653 -148.89508l-149.06653 -149.07605zm148.90463 153.143l-153.1525 -153.143l153.1525 -153.1525l153.32394 153.1525z" fill-rule="evenodd"/><defs><linearGradient id="g1599b6cdca7_0_0.7" gradientUnits="userSpaceOnUse" gradientTransform="matrix(17.503083899269367 0.0 0.0 17.503083899269367 0.0 0.0)" spreadMethod="pad" x1="-7.195743452204214" y1="18.80356911551936" x2="-7.199307808147866" y2="36.30665265186316"><stop offset="0.0" stop-color="#674ea7"/><stop offset="1.0" stop-color="#351c75"/></linearGradient></defs><path fill="url(#g1599b6cdca7_0_0.7)" d="m-121.6903 482.3354l148.8951 148.89508l149.06653 -148.89508l-149.06653 -149.07605zm148.8951 153.143l-153.15251 -153.143l153.15251 -153.1525l153.32394 153.1525z" fill-rule="evenodd"/><defs><linearGradient id="g1599b6cdca7_0_0.8" gradientUnits="userSpaceOnUse" gradientTransform="matrix(17.50308272774727 0.0 0.0 17.50308272774727 0.0 0.0)" spreadMethod="pad" x1="-7.701809291572555" y1="18.80357271713037" x2="-7.7053736477547785" y2="36.306655081951995"><stop offset="0.0" stop-color="#674ea7"/><stop offset="1.0" stop-color="#351c75"/></linearGradient></defs><path fill="url(#g1599b6cdca7_0_0.8)" d="m-130.55753 482.3354l148.8951 148.89508l149.07605 -148.89508l-149.07605 -149.07605zm148.8951 153.143l-153.14299 -153.143l153.14299 -153.1525l153.1525 153.1525z" fill-rule="evenodd"/><defs><linearGradient id="g1599b6cdca7_0_0.9" gradientUnits="userSpaceOnUse" gradientTransform="matrix(17.50308272774727 0.0 0.0 17.50308272774727 0.0 0.0)" spreadMethod="pad" x1="-8.208418235596856" y1="18.80357271713037" x2="-8.211982591779078" y2="36.306655081951995"><stop offset="0.0" stop-color="#674ea7"/><stop offset="1.0" stop-color="#351c75"/></linearGradient></defs><path fill="url(#g1599b6cdca7_0_0.9)" d="m-139.59619 482.3354l149.07605 148.89508l148.89508 -148.89508l-148.89508 -149.07605zm149.07605 153.143l-153.1525 -153.143l153.1525 -153.1525l153.14297 153.1525z" fill-rule="evenodd"/><defs><linearGradient id="g1599b6cdca7_0_0.10" gradientUnits="userSpaceOnUse" gradientTransform="matrix(17.503080970463973 0.0 0.0 17.503080970463973 0.0 0.0)" spreadMethod="pad" x1="-8.72482373814988" y1="18.803575776503383" x2="-8.72838809468996" y2="36.3066563840416"><stop offset="0.0" stop-color="#674ea7"/><stop offset="1.0" stop-color="#351c75"/></linearGradient></defs><path fill="url(#g1599b6cdca7_0_0.10)" d="m-148.45389 482.3354l148.8951 148.89508l149.06653 -148.89508l-149.06653 -149.07605zm148.8951 153.143l-153.15251 -153.143l153.15251 -153.1525l153.14297 153.1525z" fill-rule="evenodd"/><defs><linearGradient id="g1599b6cdca7_0_0.11" gradientUnits="userSpaceOnUse" gradientTransform="matrix(7.591102499226182 0.0 0.0 7.591102499226182 0.0 0.0)" spreadMethod="pad" x1="11.522138679758637" y1="65.89557477151034" x2="11.520592230445043" y2="73.48667711321623"><stop offset="0.0" stop-color="#674ea7"/><stop offset="1.0" stop-color="#351c75"/></linearGradient></defs><path fill="url(#g1599b6cdca7_0_0.11)" d="m116.18182 500.23175l-28.716095 28.716064l28.716095 28.897095l28.716095 -28.897095l-28.716095 -28.716064z" fill-rule="evenodd"/><defs><linearGradient id="g1599b6cdca7_0_0.12" gradientUnits="userSpaceOnUse" gradientTransform="matrix(7.8550737130731 0.0 0.0 7.8550737130731 0.0 0.0)" spreadMethod="pad" x1="10.864543063465092" y1="63.410636815410044" x2="10.86294351239856" y2="71.26571036562257"><stop offset="0.0" stop-color="#674ea7"/><stop offset="1.0" stop-color="#351c75"/></linearGradient></defs><path fill="url(#g1599b6cdca7_0_0.12)" d="m89.418236 528.9478l26.763588 26.773132l26.592148 -26.773132l-26.592148 -26.582611zm26.763588 30.84961l-30.840034 -30.84961l30.840034 -30.839996l30.849564 30.839996z" fill-rule="evenodd"/><defs><linearGradient id="g1599b6cdca7_0_0.13" gradientUnits="userSpaceOnUse" gradientTransform="matrix(6.3305021364137035 0.0 0.0 6.3305021364137035 0.0 0.0)" spreadMethod="pad" x1="21.51918544379912" y1="86.71945423269622" x2="21.516722093848365" y2="80.38895257555676"><stop offset="0.0" stop-color="#4e29aa"/><stop offset="1.0" stop-color="#674ea7"/></linearGradient></defs><path fill="url(#g1599b6cdca7_0_0.13)" d="m100.22844 528.9478l15.953384 15.95343l15.781952 -15.95343l-15.781952 -15.7724zm15.953384 20.029846l-20.02983 -20.029846l20.02983 -20.029816l20.02983 20.029816z" fill-rule="evenodd"/><defs><linearGradient id="g1599b6cdca7_0_0.14" gradientUnits="userSpaceOnUse" gradientTransform="matrix(10.858088752394519 0.0 0.0 10.858088752394519 0.0 0.0)" spreadMethod="pad" x1="-5.73905143154094" y1="52.43514253877223" x2="-5.741262365823826" y2="63.29323106607049"><stop offset="0.0" stop-color="#674ea7"/><stop offset="1.0" stop-color="#351c75"/></linearGradient></defs><path fill="url(#g1599b6cdca7_0_0.14)" d="m-3.4638069 569.36945l-58.851326 58.841797l58.851326 59.032288l59.032288 -59.032288l-59.032288 -58.841797z" fill-rule="evenodd"/><defs><linearGradient id="g1599b6cdca7_0_0.15" gradientUnits="userSpaceOnUse" gradientTransform="matrix(14.784557240913449 0.0 0.0 14.784557240913449 0.0 0.0)" spreadMethod="pad" x1="34.89897958244239" y1="27.90896415942402" x2="34.89596992917033" y2="42.693521094003884"><stop offset="0.0" stop-color="#674ea7"/><stop offset="1.0" stop-color="#00ffff"/></linearGradient></defs><path fill="url(#g1599b6cdca7_0_0.15)" d="m518.87445 521.9389l106.3642 106.35742l106.23511 -106.35742l-106.23511 -106.36417zm106.3642 109.26593l-109.272705 -109.26593l109.272705 -109.272675l109.272705 109.272675z" fill-rule="evenodd"/><defs><linearGradient id="g1599b6cdca7_0_0.16" gradientUnits="userSpaceOnUse" gradientTransform="matrix(14.784557240913449 0.0 0.0 14.784557240913449 0.0 0.0)" spreadMethod="pad" x1="34.46278512466805" y1="27.90896415942402" x2="34.45977547139599" y2="42.693521094003884"><stop offset="0.0" stop-color="#674ea7"/><stop offset="1.0" stop-color="#00ffff"/></linearGradient></defs><path fill="url(#g1599b6cdca7_0_0.16)" d="m512.5546 521.9389l106.23511 106.35742l106.3642 -106.35742l-106.3642 -106.36417zm106.23511 109.26593l-109.272705 -109.26593l109.272705 -109.272675l109.39502 109.272675z" fill-rule="evenodd"/><defs><linearGradient id="g1599b6cdca7_0_0.17" gradientUnits="userSpaceOnUse" gradientTransform="matrix(14.784555853976421 0.0 0.0 14.784555853976421 0.0 0.0)" spreadMethod="pad" x1="34.035326015042344" y1="27.908969551434115" x2="34.03231636148794" y2="42.693525099076865"><stop offset="0.0" stop-color="#674ea7"/><stop offset="1.0" stop-color="#00ffff"/></linearGradient></defs><path fill="url(#g1599b6cdca7_0_0.17)" d="m506.228 521.9389l106.23508 106.35742l106.3642 -106.35742l-106.3642 -106.36417zm106.23508 109.26593l-109.26587 -109.26593l109.26587 -109.272675l109.272705 109.272675z" fill-rule="evenodd"/><defs><linearGradient id="g1599b6cdca7_0_0.18" gradientUnits="userSpaceOnUse" gradientTransform="matrix(14.784555853976421 0.0 0.0 14.784555853976421 0.0 0.0)" spreadMethod="pad" x1="33.60740598321758" y1="27.908969551434115" x2="33.60439632966318" y2="42.693525099076865"><stop offset="0.0" stop-color="#674ea7"/><stop offset="1.0" stop-color="#00ffff"/></linearGradient></defs><path fill="url(#g1599b6cdca7_0_0.18)" d="m499.77908 521.9389l106.36417 106.35742l106.23511 -106.35742l-106.23511 -106.36417zm106.36417 109.26593l-109.272675 -109.26593l109.272675 -109.272675l109.272705 109.272675z" fill-rule="evenodd"/><defs><linearGradient id="g1599b6cdca7_0_0.19" gradientUnits="userSpaceOnUse" gradientTransform="matrix(14.784555853976421 0.0 0.0 14.784555853976421 0.0 0.0)" spreadMethod="pad" x1="36.678231786311535" y1="27.908969551434115" x2="36.675222132757135" y2="42.693525099076865"><stop offset="0.0" stop-color="#674ea7"/><stop offset="1.0" stop-color="#00ffff"/></linearGradient></defs><path fill="url(#g1599b6cdca7_0_0.19)" d="m545.1799 521.9389l106.3642 106.35742l106.23511 -106.35742l-106.23511 -106.36417zm106.3642 109.26593l-109.272705 -109.26593l109.272705 -109.272675l109.272705 109.272675z" fill-rule="evenodd"/><defs><linearGradient id="g1599b6cdca7_0_0.20" gradientUnits="userSpaceOnUse" gradientTransform="matrix(14.784555853976421 0.0 0.0 14.784555853976421 0.0 0.0)" spreadMethod="pad" x1="36.24203728761786" y1="27.908969551434115" x2="36.23902763406346" y2="42.693525099076865"><stop offset="0.0" stop-color="#674ea7"/><stop offset="1.0" stop-color="#00ffff"/></linearGradient></defs><path fill="url(#g1599b6cdca7_0_0.20)" d="m538.86005 521.9389l106.23511 106.35742l106.3642 -106.35742l-106.3642 -106.36417zm106.23511 109.26593l-109.272705 -109.26593l109.272705 -109.272675l109.272705 109.272675z" fill-rule="evenodd"/><defs><linearGradient id="g1599b6cdca7_0_0.21" gradientUnits="userSpaceOnUse" gradientTransform="matrix(14.784557240913449 0.0 0.0 14.784557240913449 0.0 0.0)" spreadMethod="pad" x1="35.81457435915756" y1="27.908966933298004" x2="35.811564705885495" y2="42.693523867877865"><stop offset="0.0" stop-color="#674ea7"/><stop offset="1.0" stop-color="#00ffff"/></linearGradient></defs><path fill="url(#g1599b6cdca7_0_0.21)" d="m532.41113 521.9389l106.35736 106.35742l106.23511 -106.35742l-106.23511 -106.36417zm106.35736 109.26593l-109.26587 -109.26593l109.26587 -109.272675l109.272705 109.272675z" fill-rule="evenodd"/><defs><linearGradient id="g1599b6cdca7_0_0.22" gradientUnits="userSpaceOnUse" gradientTransform="matrix(14.784557240913449 0.0 0.0 14.784557240913449 0.0 0.0)" spreadMethod="pad" x1="35.37837990138322" y1="27.908966933298004" x2="35.37537024811116" y2="42.693523867877865"><stop offset="0.0" stop-color="#674ea7"/><stop offset="1.0" stop-color="#00ffff"/></linearGradient></defs><path fill="url(#g1599b6cdca7_0_0.22)" d="m526.0845 521.9389l106.3642 106.35742l106.23511 -106.35742l-106.23511 -106.36417zm106.3642 109.26593l-109.39502 -109.26593l109.39502 -109.272675l109.272705 109.272675z" fill-rule="evenodd"/><defs><linearGradient id="g1599b6cdca7_0_0.23" gradientUnits="userSpaceOnUse" gradientTransform="matrix(0.6169095854823393 0.0 0.0 0.6169095854823393 0.0 0.0)" spreadMethod="pad" x1="1078.4906855964991" y1="841.5361846570083" x2="1078.4905526418502" y2="842.1530942281636"><stop offset="0.0" stop-color="#674ea7"/><stop offset="1.0" stop-color="#00ffff"/></linearGradient></defs><path fill="url(#g1599b6cdca7_0_0.23)" d="m665.45355 519.1518l-0.12231445 0.12908936l0.12231445 0.25146484l0 -0.3805542z" fill-rule="evenodd"/><defs><linearGradient id="g1599b6cdca7_0_0.24" gradientUnits="userSpaceOnUse" gradientTransform="matrix(0.7950181241635531 0.0 0.0 0.7950181241635531 0.0 0.0)" spreadMethod="pad" x1="837.0294410779833" y1="652.8522919821926" x2="837.0292863249124" y2="653.6473100912946"><stop offset="0.0" stop-color="#674ea7"/><stop offset="1.0" stop-color="#00ffff"/></linearGradient></defs><path fill="url(#g1599b6cdca7_0_0.24)" d="m665.7118 519.0295l-0.25823975 0.12231445l0 0.3805542l0.25823975 0.12908936l0 -0.631958z" fill-rule="evenodd"/><defs><linearGradient id="g1599b6cdca7_0_0.25" gradientUnits="userSpaceOnUse" gradientTransform="matrix(0.9399192446835446 0.0 0.0 0.9399192446835446 0.0 0.0)" spreadMethod="pad" x1="708.2649099815549" y1="552.06902764545" x2="708.2646918218624" y2="553.0089468648156"><stop offset="0.0" stop-color="#674ea7"/><stop offset="1.0" stop-color="#00ffff"/></linearGradient></defs><path fill="url(#g1599b6cdca7_0_0.25)" d="m665.8341 518.9003l-0.12231445 0.12915039l0 0.631958l0.12231445 0.12231445l0 -0.88342285z" fill-rule="evenodd"/><defs><linearGradient id="g1599b6cdca7_0_0.26" gradientUnits="userSpaceOnUse" gradientTransform="matrix(1.0653091329319984 0.0 0.0 1.0653091329319984 0.0 0.0)" spreadMethod="pad" x1="625.0149294226604" y1="486.9741506324989" x2="625.0147369409787" y2="488.0394597480419"><stop offset="0.0" stop-color="#674ea7"/><stop offset="1.0" stop-color="#00ffff"/></linearGradient></defs><path fill="url(#g1599b6cdca7_0_0.26)" d="m665.96326 518.778l-0.12915039 0.12231445l0 0.88342285l0.12915039 0.12915039l0 -1.1348877z" fill-rule="evenodd"/><defs><linearGradient id="g1599b6cdca7_0_0.27" gradientUnits="userSpaceOnUse" gradientTransform="matrix(1.1803078708530785 0.0 0.0 1.1803078708530785 0.0 0.0)" spreadMethod="pad" x1="564.2284280556772" y1="439.418291547423" x2="564.2281848365155" y2="440.5985993932167"><stop offset="0.0" stop-color="#674ea7"/><stop offset="1.0" stop-color="#00ffff"/></linearGradient></defs><path fill="url(#g1599b6cdca7_0_0.27)" d="m666.0856 518.6489l-0.12231445 0.12908936l0 1.1348877l0.12231445 0.12908936l0 -1.3930664z" fill-rule="evenodd"/><defs><linearGradient id="g1599b6cdca7_0_0.28" gradientUnits="userSpaceOnUse" gradientTransform="matrix(1.3292465399654707 0.0 0.0 1.3292465399654707 0.0 0.0)" spreadMethod="pad" x1="501.10008028876655" y1="389.9934415148061" x2="501.0998026168094" y2="391.32268802576954"><stop offset="0.0" stop-color="#674ea7"/><stop offset="1.0" stop-color="#00ffff"/></linearGradient></defs><path fill="url(#g1599b6cdca7_0_0.28)" d="m666.21466 518.39746l-0.12908936 0.25146484l0 1.3930664l0.12908936 0.12231445l0 -1.7668457z" fill-rule="evenodd"/><defs><linearGradient id="g1599b6cdca7_0_0.29" gradientUnits="userSpaceOnUse" gradientTransform="matrix(14.784556547586153 0.0 0.0 14.784556547586153 0.0 0.0)" spreadMethod="pad" x1="-7.521143296709721" y1="-6.940477826492393" x2="-7.524154337059979" y2="7.84407841447773"><stop offset="0.0" stop-color="#674ea7"/><stop offset="1.0" stop-color="#00ffff"/></linearGradient></defs><path fill="url(#g1599b6cdca7_0_0.29)" d="m-108.28828 6.705325l106.3642 106.35741l106.23508 -106.35741l-106.23508 -106.3642zm106.3642 109.26591l-109.272705 -109.26591l109.272705 -109.2727l109.272705 109.2727z" fill-rule="evenodd"/><defs><linearGradient id="g1599b6cdca7_0_0.30" gradientUnits="userSpaceOnUse" gradientTransform="matrix(14.78455724105465 0.0 0.0 14.78455724105465 0.0 0.0)" spreadMethod="pad" x1="-7.9573374017012535" y1="-6.940478887886816" x2="-7.96034844191028" y2="7.844078046551847"><stop offset="0.0" stop-color="#674ea7"/><stop offset="1.0" stop-color="#00ffff"/></linearGradient></defs><path fill="url(#g1599b6cdca7_0_0.30)" d="m-114.6081 6.705325l106.235085 106.35741l106.3642 -106.35741l-106.3642 -106.3642zm106.235085 109.26591l-109.2727 -109.26591l109.2727 -109.2727l109.39502 109.2727z" fill-rule="evenodd"/><defs><linearGradient id="g1599b6cdca7_0_0.31" gradientUnits="userSpaceOnUse" gradientTransform="matrix(14.784556547586153 0.0 0.0 14.784556547586153 0.0 0.0)" spreadMethod="pad" x1="-8.384798710522883" y1="-6.940477826492393" x2="-8.38780975087314" y2="7.84407841447773"><stop offset="0.0" stop-color="#674ea7"/><stop offset="1.0" stop-color="#00ffff"/></linearGradient></defs><path fill="url(#g1599b6cdca7_0_0.31)" d="m-120.934715 6.705325l106.23508 106.35741l106.3642 -106.35741l-106.3642 -106.3642zm106.23508 109.26591l-109.2659 -109.26591l109.2659 -109.2727l109.272705 109.2727z" fill-rule="evenodd"/><defs><linearGradient id="g1599b6cdca7_0_0.32" gradientUnits="userSpaceOnUse" gradientTransform="matrix(14.784556200851894 0.0 0.0 14.784556200851894 0.0 0.0)" spreadMethod="pad" x1="-8.812719622420506" y1="-6.940477295795149" x2="-8.81573066284138" y2="7.84407859844069"><stop offset="0.0" stop-color="#674ea7"/><stop offset="1.0" stop-color="#00ffff"/></linearGradient></defs><path fill="url(#g1599b6cdca7_0_0.32)" d="m-127.38366 6.705325l106.3642 106.35741l106.23508 -106.35741l-106.23508 -106.3642zm106.3642 109.26591l-109.272705 -109.26591l109.272705 -109.2727l109.272705 109.2727z" fill-rule="evenodd"/><defs><linearGradient id="g1599b6cdca7_0_0.33" gradientUnits="userSpaceOnUse" gradientTransform="matrix(14.784556200851894 0.0 0.0 14.784556200851894 0.0 0.0)" spreadMethod="pad" x1="-5.741893544640041" y1="-6.940477295795149" x2="-5.744904585060915" y2="7.84407859844069"><stop offset="0.0" stop-color="#674ea7"/><stop offset="1.0" stop-color="#00ffff"/></linearGradient></defs><path fill="url(#g1599b6cdca7_0_0.33)" d="m-81.98286 6.705325l106.3642 106.35741l106.23508 -106.35741l-106.23508 -106.3642zm106.3642 109.26591l-109.272705 -109.26591l109.272705 -109.2727l109.27269 109.2727z" fill-rule="evenodd"/><defs><linearGradient id="g1599b6cdca7_0_0.34" gradientUnits="userSpaceOnUse" gradientTransform="matrix(14.784556547586153 0.0 0.0 14.784556547586153 0.0 0.0)" spreadMethod="pad" x1="-6.17808754147407" y1="-6.940477826492393" x2="-6.181098581824328" y2="7.84407841447773"><stop offset="0.0" stop-color="#674ea7"/><stop offset="1.0" stop-color="#00ffff"/></linearGradient></defs><path fill="url(#g1599b6cdca7_0_0.34)" d="m-88.30268 6.705325l106.235085 106.35741l106.3642 -106.35741l-106.3642 -106.3642zm106.235085 109.26591l-109.2727 -109.26591l109.2727 -109.2727l109.272705 109.2727z" fill-rule="evenodd"/><defs><linearGradient id="g1599b6cdca7_0_0.35" gradientUnits="userSpaceOnUse" gradientTransform="matrix(14.784556200851894 0.0 0.0 14.784556200851894 0.0 0.0)" spreadMethod="pad" x1="-6.605549325442322" y1="-6.940477295795149" x2="-6.608560365863196" y2="7.84407859844069"><stop offset="0.0" stop-color="#674ea7"/><stop offset="1.0" stop-color="#00ffff"/></linearGradient></defs><path fill="url(#g1599b6cdca7_0_0.35)" d="m-94.75162 6.705325l106.3574 106.35741l106.235085 -106.35741l-106.235085 -106.3642zm106.3574 109.26591l-109.2659 -109.26591l109.2659 -109.2727l109.272705 109.2727z" fill-rule="evenodd"/><defs><linearGradient id="g1599b6cdca7_0_0.36" gradientUnits="userSpaceOnUse" gradientTransform="matrix(14.78455724105465 0.0 0.0 14.78455724105465 0.0 0.0)" spreadMethod="pad" x1="-7.04174262499483" y1="-6.940478887886816" x2="-7.044753665203856" y2="7.844078046551847"><stop offset="0.0" stop-color="#674ea7"/><stop offset="1.0" stop-color="#00ffff"/></linearGradient></defs><path fill="url(#g1599b6cdca7_0_0.36)" d="m-101.07824 6.705325l106.3642 106.35741l106.23508 -106.35741l-106.23508 -106.3642zm106.3642 109.26591l-109.39502 -109.26591l109.39502 -109.2727l109.272705 109.2727z" fill-rule="evenodd"/><defs><linearGradient id="g1599b6cdca7_0_0.37" gradientUnits="userSpaceOnUse" gradientTransform="matrix(10.858088988694583 0.0 0.0 10.858088988694583 0.0 0.0)" spreadMethod="pad" x1="79.44449566046663" y1="-15.315980400082895" x2="79.44228236563583" y2="-4.457891636965487"><stop offset="0.0" stop-color="#674ea7"/><stop offset="1.0" stop-color="#351c75"/></linearGradient></defs><path fill="url(#g1599b6cdca7_0_0.37)" d="m921.4667 -166.27827l-58.85132 59.022774l58.85132 58.851322l59.022766 -58.851322l-59.022766 -59.022774z" fill-rule="evenodd"/><defs><linearGradient id="g1599b6cdca7_0_0.38" gradientUnits="userSpaceOnUse" gradientTransform="matrix(17.50308243504571 0.0 0.0 17.50308243504571 0.0 0.0)" spreadMethod="pad" x1="41.81998200808757" y1="-6.718517463780398" x2="41.81641589456247" y2="10.784564607981698"><stop offset="0.0" stop-color="#674ea7"/><stop offset="1.0" stop-color="#351c75"/></linearGradient></defs><path fill="url(#g1599b6cdca7_0_0.38)" d="m736.23596 35.620163l149.06653 148.8951l148.89514 -148.8951l-148.89514 -149.07605zm149.06653 153.14297l-153.32391 -153.14297l153.32391 -153.1525l153.15259 153.1525z" fill-rule="evenodd"/><defs><linearGradient id="g1599b6cdca7_0_0.39" gradientUnits="userSpaceOnUse" gradientTransform="matrix(17.50308126352351 0.0 0.0 17.50308126352351 0.0 0.0)" spreadMethod="pad" x1="41.31391999288252" y1="-6.7185155704219754" x2="41.31035387911873" y2="10.784565329817852"><stop offset="0.0" stop-color="#674ea7"/><stop offset="1.0" stop-color="#351c75"/></linearGradient></defs><path fill="url(#g1599b6cdca7_0_0.39)" d="m727.3688 35.620163l148.89508 148.8951l149.07611 -148.8951l-149.07611 -149.07605zm148.89508 153.14297l-153.143 -153.14297l153.143 -153.1525l153.15253 153.1525z" fill-rule="evenodd"/><defs><linearGradient id="g1599b6cdca7_0_0.40" gradientUnits="userSpaceOnUse" gradientTransform="matrix(17.50308126352351 0.0 0.0 17.50308126352351 0.0 0.0)" spreadMethod="pad" x1="40.80730690614983" y1="-6.7185155704219754" x2="40.80374079238604" y2="10.784565329817852"><stop offset="0.0" stop-color="#674ea7"/><stop offset="1.0" stop-color="#351c75"/></linearGradient></defs><path fill="url(#g1599b6cdca7_0_0.40)" d="m718.3301 35.620163l149.07605 148.8951l148.89514 -148.8951l-148.89514 -149.07605zm149.07605 153.14297l-153.15247 -153.14297l153.15247 -153.1525l153.143 153.1525z" fill-rule="evenodd"/><defs><linearGradient id="g1599b6cdca7_0_0.41" gradientUnits="userSpaceOnUse" gradientTransform="matrix(17.50308272792624 0.0 0.0 17.50308272792624 0.0 0.0)" spreadMethod="pad" x1="40.290901208445256" y1="-6.718516765597807" x2="40.287335094979824" y2="10.784565599044848"><stop offset="0.0" stop-color="#674ea7"/><stop offset="1.0" stop-color="#351c75"/></linearGradient></defs><path fill="url(#g1599b6cdca7_0_0.41)" d="m709.4629 35.620163l148.9046 148.8951l149.06653 -148.8951l-149.06653 -149.07605zm148.9046 153.14297l-153.15253 -153.14297l153.15253 -153.1525l153.32391 153.1525z" fill-rule="evenodd"/><defs><linearGradient id="g1599b6cdca7_0_0.42" gradientUnits="userSpaceOnUse" gradientTransform="matrix(17.50308272744918 0.0 0.0 17.50308272744918 0.0 0.0)" spreadMethod="pad" x1="43.92640627585765" y1="-6.718516765780926" x2="43.92284484848077" y2="10.78456559933879"><stop offset="0.0" stop-color="#674ea7"/><stop offset="1.0" stop-color="#351c75"/></linearGradient></defs><path fill="url(#g1599b6cdca7_0_0.42)" d="m773.105 35.620163l148.89508 148.8951l149.06659 -148.8951l-149.06659 -149.07605zm148.89508 153.14297l-153.15253 -153.14297l153.15253 -153.1525l153.32391 153.1525z" fill-rule="evenodd"/><defs><linearGradient id="g1599b6cdca7_0_0.43" gradientUnits="userSpaceOnUse" gradientTransform="matrix(17.503081555927 0.0 0.0 17.503081555927 0.0 0.0)" spreadMethod="pad" x1="43.42034441009464" y1="-6.718514872422481" x2="43.41678298247939" y2="10.784566321174987"><stop offset="0.0" stop-color="#674ea7"/><stop offset="1.0" stop-color="#351c75"/></linearGradient></defs><path fill="url(#g1599b6cdca7_0_0.43)" d="m764.23773 35.620163l148.89508 148.8951l149.07605 -148.8951l-149.07605 -149.07605zm148.89508 153.14297l-153.14294 -153.14297l153.14294 -153.1525l153.15259 153.1525z" fill-rule="evenodd"/><defs><linearGradient id="g1599b6cdca7_0_0.44" gradientUnits="userSpaceOnUse" gradientTransform="matrix(17.503081555927 0.0 0.0 17.503081555927 0.0 0.0)" spreadMethod="pad" x1="42.91373601791431" y1="-6.718514872422481" x2="42.910174590299064" y2="10.784566321174987"><stop offset="0.0" stop-color="#674ea7"/><stop offset="1.0" stop-color="#351c75"/></linearGradient></defs><path fill="url(#g1599b6cdca7_0_0.44)" d="m755.1991 35.620163l149.07605 148.8951l148.89514 -148.8951l-148.89514 -149.07605zm149.07605 153.14297l-153.15253 -153.14297l153.15253 -153.1525l153.14294 153.1525z" fill-rule="evenodd"/><defs><linearGradient id="g1599b6cdca7_0_0.45" gradientUnits="userSpaceOnUse" gradientTransform="matrix(17.503081263046447 0.0 0.0 17.503081263046447 0.0 0.0)" spreadMethod="pad" x1="42.39733440923025" y1="-6.718515570605095" x2="42.39377298155541" y2="10.784565330111795"><stop offset="0.0" stop-color="#674ea7"/><stop offset="1.0" stop-color="#351c75"/></linearGradient></defs><path fill="url(#g1599b6cdca7_0_0.45)" d="m746.3414 35.620163l148.89508 148.8951l149.06653 -148.8951l-149.06653 -149.07605zm148.89508 153.14297l-153.15247 -153.14297l153.15247 -153.1525l153.14307 153.1525z" fill-rule="evenodd"/><defs><linearGradient id="g1599b6cdca7_0_0.46" gradientUnits="userSpaceOnUse" gradientTransform="matrix(7.591102836741344 0.0 0.0 7.591102836741344 0.0 0.0)" spreadMethod="pad" x1="129.39634884926767" y1="7.04836112265092" x2="129.3948037506335" y2="14.63946380214701"><stop offset="0.0" stop-color="#674ea7"/><stop offset="1.0" stop-color="#351c75"/></linearGradient></defs><path fill="url(#g1599b6cdca7_0_0.46)" d="m1010.9771 53.51653l-28.716125 28.716091l28.716125 28.897057l28.716125 -28.897057l-28.716125 -28.716091z" fill-rule="evenodd"/><defs><linearGradient id="g1599b6cdca7_0_0.47" gradientUnits="userSpaceOnUse" gradientTransform="matrix(7.855072735021734 0.0 0.0 7.855072735021734 0.0 0.0)" spreadMethod="pad" x1="124.77759151951408" y1="6.540998459594117" x2="124.77598348429635" y2="14.396071030023021"><stop offset="0.0" stop-color="#674ea7"/><stop offset="1.0" stop-color="#351c75"/></linearGradient></defs><path fill="url(#g1599b6cdca7_0_0.47)" d="m984.2135 82.23262l26.76361 26.773117l26.592102 -26.773117l-26.592102 -26.582626zm26.76361 30.849564l-30.840027 -30.849564l30.840027 -30.840034l30.849548 30.840034z" fill-rule="evenodd"/><defs><linearGradient id="g1599b6cdca7_0_0.48" gradientUnits="userSpaceOnUse" gradientTransform="matrix(6.329915250461419 0.0 0.0 6.329915250461419 0.0 0.0)" spreadMethod="pad" x1="156.54984644959546" y1="9.825507647345775" x2="156.54855068189352" y2="16.155422765181882"><stop offset="0.0" stop-color="#674ea7"/><stop offset="1.0" stop-color="#00ffff"/></linearGradient></defs><path fill="url(#g1599b6cdca7_0_0.48)" d="m995.02374 82.23262l15.953369 15.953384l15.781921 -15.953384l-15.781921 -15.772423zm15.953369 20.02983l-20.029846 -20.02983l20.029846 -20.02983l20.029846 20.02983z" fill-rule="evenodd"/><defs><linearGradient id="g1599b6cdca7_0_0.49" gradientUnits="userSpaceOnUse" gradientTransform="matrix(10.85808875263498 0.0 0.0 10.85808875263498 0.0 0.0)" spreadMethod="pad" x1="76.66912381026664" y1="11.293903662702526" x2="76.66691051538774" y2="22.151992189760318"><stop offset="0.0" stop-color="#674ea7"/><stop offset="1.0" stop-color="#351c75"/></linearGradient></defs><path fill="url(#g1599b6cdca7_0_0.49)" d="m891.3315 122.65421l-58.85132 58.841805l58.85132 59.032288l59.032288 -59.032288l-59.032288 -58.841805z" fill-rule="evenodd"/></g></svg>